PathFileType	4	(X/Y/Z)	s10c0103.trc
DataRate	CameraRate	NumFrames	NumMarkers	Units	OrigDataRate	OrigDataStartFrame	OrigNumFrames
200	200	5	50	mm	200	250	2000
Frame#	Time	racr			lacr			c7			jug			rlel			rdr			llel			ldr			s2			lic			ric			lasi			rasi			rpsi			lpsi			rgt			lgt			rth1			rth2			rth3			rth4			rlfc			rmfc			rsh1			rsh2			rsh3			rsh4			rlmal			rmmal			rcal			rtoe			rmt5			lth1			lth2			lth4			lth3			llfc			lmfc			llmal			lmmal			lcal			lmt5			lsh1			lsh2			lsh3			lsh4			ltoe			SBIKE			LBIKE			RBIKE			
		X1	Y1	Z1	X2	Y2	Z2	X3	Y3	Z3	X4	Y4	Z4	X5	Y5	Z5	X6	Y6	Z6	X7	Y7	Z7	X8	Y8	Z8	X9	Y9	Z9	X10	Y10	Z10	X11	Y11	Z11	X12	Y12	Z12	X13	Y13	Z13	X14	Y14	Z14	X15	Y15	Z15	X16	Y16	Z16	X17	Y17	Z17	X18	Y18	Z18	X19	Y19	Z19	X20	Y20	Z20	X21	Y21	Z21	X22	Y22	Z22	X23	Y23	Z23	X24	Y24	Z24	X25	Y25	Z25	X26	Y26	Z26	X27	Y27	Z27	X28	Y28	Z28	X29	Y29	Z29	X30	Y30	Z30	X31	Y31	Z31	X32	Y32	Z32	X33	Y33	Z33	X34	Y34	Z34	X35	Y35	Z35	X36	Y36	Z36	X37	Y37	Z37	X38	Y38	Z38	X39	Y39	Z39	X40	Y40	Z40	X41	Y41	Z41	X42	Y42	Z42	X43	Y43	Z43	X44	Y44	Z44	X45	Y45	Z45	X46	Y46	Z46	X47	Y47	Z47	X48	Y48	Z48	X49	Y49	Z49	X50	Y50	Z50	
250	1.2500	425.340765	1244.556281	-23.630300	434.500264	1295.472894	-343.054085	405.737031	1318.185703	-192.489963	414.266925	1172.137127	-200.097259	428.297896	969.393794	10.285203	630.662211	892.954415	-46.956278	495.891662	1048.106970	-462.846714	638.696601	879.164614	-418.135834	-113.157253	1115.540781	-203.587314	46.652853	1115.506699	-366.344949	77.781670	1095.731221	-89.628486	62.123626	1032.626484	-344.422771	68.147688	1017.502062	-88.969722	-57.939646	1165.511538	-151.984586	-57.138387	1179.449885	-262.194987	-34.579940	1007.677242	-23.939587	-67.339518	1004.709201	-408.087784	57.344486	891.406588	-10.639601	137.513285	855.065072	-29.384961	183.625753	784.720829	-44.567734	158.279166	884.763379	-36.553709	270.280310	718.523840	-67.520529	246.888443	706.197942	-180.778484	236.808295	607.899436	-33.663600	250.829480	520.944561	-47.595777	221.812358	439.855009	-48.699281	277.342050	521.647311	-75.169746	204.796867	340.391458	-62.758837	223.322814	358.053009	-147.042762	153.730534	312.935700	-107.492740	396.616196	313.282797	-104.924369	317.707719	279.744312	-41.475120	26.462530	916.764843	-434.920093	110.020421	892.983729	-430.040264	128.067240	922.696753	-418.335321	172.730782	829.760546	-435.386835	254.967712	753.963795	-424.449410	264.224879	741.039642	-301.609296	-23.342168	496.224354	-382.050705	-1.928463	490.897830	-302.717344	-77.763705	507.635010	-330.557089	8.036417	353.989773	-398.520487	157.243250	675.876323	-443.247391	120.351395	598.659992	-419.124680	45.831314	551.393305	-405.767388	144.708108	584.848587	-392.931386	88.145429	314.993555	-344.573694	-217.202396	831.810373	-214.141804	-103.847868	80.484748	-418.325389	-103.794272	80.438792	-18.371020	
251	1.2550	425.820909	1243.384500	-22.950928	435.532575	1295.285510	-341.717413	406.460256	1317.743075	-191.457860	414.420773	1171.626493	-199.375034	427.943101	968.438484	10.193338	630.584793	892.851519	-47.144450	496.194269	1047.932928	-462.837410	638.660878	879.258682	-418.284656	-112.922332	1116.390624	-202.596365	46.581170	1117.029330	-366.023854	78.099945	1095.811974	-89.493723	62.021558	1033.929846	-344.608401	68.695018	1017.560570	-89.149449	-57.407209	1165.923000	-151.269738	-56.959066	1180.838365	-260.954880	-33.847040	1007.646907	-23.882446	-67.262546	1006.878001	-407.865601	56.795721	890.827400	-10.647603	136.477041	853.479201	-29.574238	181.859112	782.717200	-44.882375	157.626411	883.063383	-36.758945	267.976574	715.699400	-67.991630	244.566134	703.969265	-181.039516	234.864873	605.143595	-33.791705	249.125664	518.269725	-47.720197	220.228597	436.986810	-48.824987	275.839658	518.976829	-75.479060	203.921015	337.321307	-62.708099	222.690248	354.826343	-146.912708	152.866606	309.904921	-107.546102	395.846352	309.595269	-105.019119	316.906453	276.289229	-41.533895	26.907962	919.257995	-434.732921	110.507063	895.814376	-429.823908	128.415956	925.549940	-417.902900	173.455740	832.589595	-435.326728	256.056680	757.155479	-424.802249	265.551485	744.039027	-301.630009	-22.738364	499.592133	-382.123519	-1.145614	494.291894	-302.796763	-77.204327	511.007795	-330.495738	8.864705	357.409325	-398.521463	158.289707	678.955400	-443.388851	121.328203	601.690431	-419.264242	46.649617	554.586996	-405.854752	145.613263	587.869156	-392.931405	89.114326	318.471853	-344.575242	-217.153695	831.795086	-214.131533	-103.894092	80.507539	-418.351198	-103.871590	80.419682	-18.430395	
252	1.2600	426.379857	1242.223409	-22.478819	436.521028	1295.137016	-340.511402	407.171861	1317.290979	-190.370626	414.655695	1171.063257	-198.687857	427.585917	967.618889	10.207703	630.490121	892.785333	-47.285793	496.442232	1047.743893	-462.744496	638.614147	879.302358	-418.388252	-112.678001	1117.345430	-201.687272	46.567265	1118.640959	-365.814801	78.409805	1095.855928	-89.338043	61.884087	1035.127582	-344.767105	69.286494	1017.628058	-89.193204	-57.095691	1166.536724	-150.251507	-56.723958	1181.814739	-259.981361	-33.125298	1007.789501	-23.820062	-66.910180	1008.898565	-407.867256	56.292963	890.353292	-10.624226	135.501106	851.972577	-29.718380	180.115305	780.923493	-45.037156	156.942439	881.483464	-36.957558	265.672079	713.021325	-68.251156	242.176253	701.483081	-181.128131	233.016017	602.552422	-33.940372	247.496582	515.744052	-47.827868	218.805054	434.273986	-48.985879	274.251698	516.504121	-75.609950	203.200095	334.316390	-62.537341	221.808669	351.905260	-146.712515	152.255212	307.365983	-107.535519	395.144429	305.920955	-105.152230	316.094863	272.913991	-41.541640	27.308570	921.724007	-434.539045	111.008321	898.547718	-429.573890	128.758911	928.260137	-417.484773	174.215478	835.588894	-435.317012	257.198667	760.268193	-425.075581	266.706567	746.718616	-301.622695	-22.183859	502.830291	-382.057192	-0.582122	497.846951	-302.852978	-76.568832	514.239036	-330.540576	9.742343	360.869992	-398.443702	159.327790	681.927383	-443.542452	122.169518	604.774779	-419.322361	47.513349	557.808379	-405.890522	146.478376	590.810314	-393.028218	90.038769	321.972538	-344.618574	-217.156581	831.795631	-214.152027	-103.928793	80.511562	-418.371871	-103.905072	80.411682	-18.472260	
253	1.2650	426.880526	1241.265963	-21.537872	437.431248	1295.097216	-339.365753	407.873607	1316.814090	-189.287543	414.917792	1170.649657	-198.007769	427.221143	966.843009	10.283950	630.415527	892.734824	-47.391749	496.624500	1047.643614	-462.610129	638.551515	879.330044	-418.414665	-112.383271	1118.168970	-200.829310	46.605216	1120.211511	-365.625109	78.798708	1096.021468	-89.142889	61.750274	1036.309758	-344.981811	69.938923	1017.739764	-89.170269	-56.818152	1167.224781	-149.159209	-55.371174	1183.811831	-260.930486	-32.426601	1008.061569	-23.751917	-66.763043	1010.964554	-407.749340	55.713021	890.044492	-10.650803	134.504620	851.055527	-29.831920	178.435574	779.351253	-45.048192	156.230764	880.154483	-37.168295	263.367346	710.520180	-68.399371	239.890312	699.065511	-181.232694	231.082432	599.991434	-33.925651	245.956127	513.286491	-47.821620	217.609248	431.694944	-48.957665	272.679517	514.196756	-75.645622	202.620859	331.599242	-62.331852	221.079035	348.987895	-146.484915	151.536061	304.679573	-107.203738	394.505706	302.143570	-105.193759	315.283626	269.527863	-41.490452	27.719644	924.128380	-434.342951	111.536633	901.170640	-429.326088	129.178415	930.939734	-417.092500	174.905475	838.350718	-435.264952	258.332242	763.027638	-425.137898	267.828223	749.259239	-301.688233	-21.575368	506.104715	-382.149623	0.073084	501.065781	-302.818416	-76.039012	517.525615	-330.534535	10.746654	364.283249	-398.476096	160.326094	684.848012	-443.626748	123.260999	608.781071	-419.894177	48.268465	560.990160	-405.884715	147.351693	593.832579	-393.280710	91.026804	325.655634	-344.602528	-217.176655	831.787646	-214.167822	-103.935916	80.509591	-418.399162	-103.920140	80.421682	-18.485001	
254	1.2700	427.541126	1240.380189	-20.745040	438.323719	1295.047948	-338.279986	408.501538	1316.410812	-188.241940	415.043380	1170.384241	-197.291986	427.059665	966.224559	10.595872	630.302712	892.688988	-47.410583	496.795378	1047.654050	-462.362111	638.508316	879.376895	-418.403251	-112.072735	1119.039487	-199.977629	46.671712	1121.645961	-365.395080	78.052996	1096.002413	-89.223007	61.615068	1037.425800	-345.187691	70.488589	1017.852010	-89.322410	-56.387639	1167.859608	-148.222159	-54.895341	1184.637369	-260.288047	-31.769704	1008.453545	-23.692160	-66.614890	1012.847804	-407.593326	55.157384	889.807634	-10.510687	131.357460	849.282783	-31.067934	176.778363	777.872932	-44.891629	155.588460	878.970233	-37.259269	261.130000	708.089481	-68.429522	237.671069	696.662846	-181.180199	229.194408	597.497637	-33.798801	244.596966	510.850687	-47.720655	216.504447	429.106231	-48.890326	271.142658	511.927815	-75.460765	202.070077	328.929266	-62.195604	220.399395	346.137968	-146.268959	150.825877	302.306315	-107.183751	393.821364	298.577674	-104.460256	314.424697	266.121326	-41.475203	28.232839	926.479511	-434.191289	112.098583	903.868755	-429.117267	129.638431	933.521087	-416.693121	175.672120	841.080853	-435.216580	259.448238	765.857873	-425.337228	269.484694	752.553032	-301.888784	-20.987038	509.371682	-382.197567	0.711988	504.425531	-302.777407	-75.521003	520.679054	-330.573944	11.834485	367.695765	-398.463532	161.328217	687.843313	-443.645689	124.127832	611.788344	-420.005858	49.018228	564.228276	-405.898176	148.237123	596.785560	-393.344985	92.202291	329.294787	-344.633277	-217.160737	831.814763	-214.162077	-103.926053	80.526556	-418.395293	-103.907761	80.417357	-18.465740	
